<?xml version="1.0" encoding="UTF-8" standalone="no"?>
<svg
   xmlns:dc="http://purl.org/dc/elements/1.1/"
   xmlns:cc="http://creativecommons.org/ns#"
   xmlns:rdf="http://www.w3.org/1999/02/22-rdf-syntax-ns#"
   xmlns:svg="http://www.w3.org/2000/svg"
   xmlns="http://www.w3.org/2000/svg"
   xmlns:sodipodi="http://sodipodi.sourceforge.net/DTD/sodipodi-0.dtd"
   xmlns:inkscape="http://www.inkscape.org/namespaces/inkscape"
   viewBox="0 0 384 512"
   version="1.1"
   id="svg4"
   sodipodi:docname="contentstable.svg"
   inkscape:version="0.92.1 r15371">
  <metadata
     id="metadata10">
    <rdf:RDF>
      <cc:Work
         rdf:about="">
        <dc:format>image/svg+xml</dc:format>
        <dc:type
           rdf:resource="http://purl.org/dc/dcmitype/StillImage" />
      </cc:Work>
    </rdf:RDF>
  </metadata>
  <defs
     id="defs8" />
  <sodipodi:namedview
     pagecolor="#ffffff"
     bordercolor="#666666"
     borderopacity="1"
     objecttolerance="10"
     gridtolerance="10"
     guidetolerance="10"
     inkscape:pageopacity="0"
     inkscape:pageshadow="2"
     inkscape:window-width="1600"
     inkscape:window-height="837"
     id="namedview6"
     showgrid="false"
     inkscape:zoom="1.1372114"
     inkscape:cx="140.17226"
     inkscape:cy="238.46957"
     inkscape:window-x="-8"
     inkscape:window-y="-8"
     inkscape:window-maximized="1"
     inkscape:current-layer="g4483" />
  <g
     id="g4483">
    <g
       id="g4520">
      <path
         sodipodi:nodetypes="ssscsssssssccccccccsscc"
         inkscape:connector-curvature="0"
         d="M 369.9,97.9 286,14 C 277,5 264.8,-0.1 252.1,-0.1 H 48 C 21.5,0 0,21.5 0,48 v 416 c 0,26.5 21.5,48 48,48 h 288 c 26.5,0 48,-21.5 48,-48 V 131.9 c 0,-12.7 -5.1,-25 -14.1,-34 z M 256,51.9 332.1,128 H 256 Z M 336,464 H 48 V 48 h 160 v 104 c 0,13.3 10.7,24 24,24 h 104 z"
         id="path2"
         style="fill:#ffffff;fill-opacity:1;stroke:#ffffff;stroke-opacity:1" />
      <path
         inkscape:export-ydpi="5.6550455"
         inkscape:export-xdpi="5.6550455"
         d="m 96.328152,245.63749 a 14.995931,15.152999 0 0 1 9.364688,19.22104 14.995931,15.152999 0 0 1 -19.017017,9.47258 14.995931,15.152999 0 0 1 -9.384111,-19.21135 14.995931,15.152999 0 0 1 19.007427,-9.49222 l -4.804403,14.35427 z"
         sodipodi:end="5.0385201"
         sodipodi:start="5.0405632"
         sodipodi:ry="15.152999"
         sodipodi:rx="14.995931"
         sodipodi:cy="259.98181"
         sodipodi:cx="91.494736"
         sodipodi:type="arc"
         id="path4573"
         style="fill:#ffffff;fill-opacity:1;stroke:#ffffff;stroke-width:0;stroke-linecap:round;stroke-miterlimit:4;stroke-dasharray:none;stroke-opacity:1" />
      <path
         sodipodi:nodetypes="cc"
         inkscape:connector-curvature="0"
         id="path4487"
         d="M 88.346248,207.62712 H 230.63419"
         style="fill:#ffffff;fill-opacity:1;stroke:#ffffff;stroke-width:40;stroke-linecap:round;stroke-linejoin:miter;stroke-miterlimit:4;stroke-dasharray:none;stroke-opacity:1" />
      <path
         sodipodi:nodetypes="cc"
         inkscape:connector-curvature="0"
         id="path4487-6"
         d="M 136.76099,261.8644 H 290.42545"
         style="fill:#ffffff;fill-opacity:1;stroke:#ffffff;stroke-width:35;stroke-linecap:round;stroke-linejoin:miter;stroke-miterlimit:4;stroke-dasharray:none;stroke-opacity:1" />
      <path
         sodipodi:nodetypes="cc"
         inkscape:connector-curvature="0"
         id="path4487-6-1"
         d="M 134.73008,309.42373 H 286.56147"
         style="fill:#ffffff;fill-opacity:1;stroke:#ffffff;stroke-width:35;stroke-linecap:round;stroke-linejoin:miter;stroke-miterlimit:4;stroke-dasharray:none;stroke-opacity:1" />
      <path
         sodipodi:nodetypes="cc"
         inkscape:connector-curvature="0"
         id="path4487-1"
         d="M 82.303237,365.15254 H 293.0188"
         style="fill:#ffffff;fill-opacity:1;stroke:#ffffff;stroke-width:40;stroke-linecap:round;stroke-linejoin:miter;stroke-miterlimit:4;stroke-dasharray:none;stroke-opacity:1" />
      <path
         sodipodi:nodetypes="cc"
         inkscape:connector-curvature="0"
         id="path4487-6-4"
         d="M 142.70321,419.55932 H 270.72315"
         style="fill:#ffffff;fill-opacity:1;stroke:#ffffff;stroke-width:35;stroke-linecap:round;stroke-linejoin:miter;stroke-miterlimit:4;stroke-dasharray:none;stroke-opacity:1" />
      <path
         inkscape:export-ydpi="5.6550455"
         inkscape:export-xdpi="5.6550455"
         d="m 95.733067,293.19804 a 14.995931,15.152999 0 0 1 9.364683,19.22103 14.995931,15.152999 0 0 1 -19.017012,9.47259 14.995931,15.152999 0 0 1 -9.384111,-19.21136 14.995931,15.152999 0 0 1 19.007427,-9.49221 l -4.804403,14.35427 z"
         sodipodi:end="5.0385201"
         sodipodi:start="5.0405632"
         sodipodi:ry="15.152999"
         sodipodi:rx="14.995931"
         sodipodi:cy="307.54236"
         sodipodi:cx="90.899651"
         sodipodi:type="arc"
         id="path4573-8"
         style="fill:#ffffff;fill-opacity:1;stroke:#ffffff;stroke-width:0;stroke-linecap:round;stroke-miterlimit:4;stroke-dasharray:none;stroke-opacity:1" />
      <path
         inkscape:export-ydpi="5.6550455"
         inkscape:export-xdpi="5.6550455"
         d="m 102.58351,403.68067 a 14.995931,15.152999 0 0 1 9.36468,19.22104 14.995931,15.152999 0 0 1 -19.017011,9.47259 14.995931,15.152999 0 0 1 -9.384111,-19.21136 14.995931,15.152999 0 0 1 19.007432,-9.49221 l -4.804408,14.35426 z"
         sodipodi:end="5.0385201"
         sodipodi:start="5.0405632"
         sodipodi:ry="15.152999"
         sodipodi:rx="14.995931"
         sodipodi:cy="418.02499"
         sodipodi:cx="97.750092"
         sodipodi:type="arc"
         id="path4573-8-0"
         style="fill:#ffffff;fill-opacity:1;stroke:#ffffff;stroke-width:0;stroke-linecap:round;stroke-miterlimit:4;stroke-dasharray:none;stroke-opacity:1" />
    </g>
  </g>
</svg>
