<?xml version="1.0" encoding="UTF-8" standalone="no"?>
<svg
   xmlns:dc="http://purl.org/dc/elements/1.1/"
   xmlns:cc="http://creativecommons.org/ns#"
   xmlns:rdf="http://www.w3.org/1999/02/22-rdf-syntax-ns#"
   xmlns:svg="http://www.w3.org/2000/svg"
   xmlns="http://www.w3.org/2000/svg"
   xmlns:sodipodi="http://sodipodi.sourceforge.net/DTD/sodipodi-0.dtd"
   xmlns:inkscape="http://www.inkscape.org/namespaces/inkscape"
   viewBox="0 0 496 496"
   version="1.1"
   id="svg4"
   sodipodi:docname="cross-circle.svg"
   width="496"
   height="496"
   inkscape:version="0.92.1 r15371">
  <metadata
     id="metadata10">
    <rdf:RDF>
      <cc:Work
         rdf:about="">
        <dc:format>image/svg+xml</dc:format>
        <dc:type
           rdf:resource="http://purl.org/dc/dcmitype/StillImage" />
        <dc:title></dc:title>
      </cc:Work>
    </rdf:RDF>
  </metadata>
  <defs
     id="defs8">
    <clipPath
       clipPathUnits="userSpaceOnUse"
       id="clipPath4508">
      <g
         inkscape:label="Clip"
         id="use4510">
        <g
           transform="matrix(1.2798386,0,0,1.2798386,-69.423725,-69.376286)"
           id="g4543">
          <path
             d="M 248,0 C 111.033,0 0,111.033 0,248 0,384.967 111.033,496 248,496 384.967,496 496,384.967 496,248 496,111.033 384.967,0 248,0 Z m 0,48 c 110.532,0 200,89.451 200,200 0,110.532 -89.451,200 -200,200 C 137.468,448 48,358.549 48,248 48,137.468 137.451,48 248,48 m 140.204,130.267 -22.536,-22.718 c -4.667,-4.705 -12.265,-4.736 -16.97,-0.068 L 207.346,295.697 147.554,235.42 c -4.667,-4.705 -12.265,-4.736 -16.97,-0.069 l -22.719,22.536 c -4.705,4.667 -4.736,12.265 -0.068,16.971 l 90.781,91.516 c 4.667,4.705 12.265,4.736 16.97,0.068 L 388.137,195.238 c 4.704,-4.668 4.734,-12.266 0.067,-16.971 z"
             id="path4541"
             inkscape:connector-curvature="0" />
        </g>
      </g>
    </clipPath>
  </defs>
  <sodipodi:namedview
     pagecolor="#ffffff"
     bordercolor="#666666"
     borderopacity="1"
     objecttolerance="10"
     gridtolerance="10"
     guidetolerance="10"
     inkscape:pageopacity="0"
     inkscape:pageshadow="2"
     inkscape:window-width="1600"
     inkscape:window-height="837"
     id="namedview6"
     showgrid="false"
     inkscape:pagecheckerboard="true"
     fit-margin-top="0"
     fit-margin-left="0"
     fit-margin-right="0"
     fit-margin-bottom="0"
     inkscape:zoom="1.1578322"
     inkscape:cx="156.71153"
     inkscape:cy="230.92499"
     inkscape:window-x="-8"
     inkscape:window-y="-8"
     inkscape:window-maximized="1"
     inkscape:current-layer="svg4" />
  <!-- Font Awesome Free 5.15.3 by @fontawesome - https://fontawesome.com License - https://fontawesome.com/license/free (Icons: CC BY 4.0, Fonts: SIL OFL 1.1, Code: MIT License) -->
  <path
     style="fill:#f44336;fill-opacity:1;stroke:none;stroke-width:2.0244832;stroke-linecap:round;stroke-linejoin:round;stroke-miterlimit:4;stroke-dasharray:none;stroke-opacity:1"
     d="M 253.84766 0.21484375 A 247.85899 247.92839 0 0 0 10.705078 175.99805 A 247.85899 247.92839 0 0 0 175.79297 485.28906 A 247.85899 247.92839 0 0 0 485.00586 320.16992 A 247.85899 247.92839 0 0 0 319.94922 10.861328 L 268.27344 180.89844 L 356.76758 92.914062 C 360.87646 88.828811 367.47334 88.848148 371.55859 92.957031 L 404.91797 126.50781 C 409.00322 130.6167 408.98388 137.21358 404.875 141.29883 L 295.70117 249.84375 L 403.07617 356.77539 C 407.18173 360.86398 407.19602 367.4589 403.10742 371.56445 L 369.7207 405.08984 C 365.63211 409.1954 359.03525 409.20969 354.92969 405.12109 L 247.31641 297.95117 L 137.35742 407.27734 C 133.24854 411.3626 126.65166 411.34521 122.56641 407.23633 L 89.207031 373.68359 C 85.121779 369.57471 85.141117 362.97783 89.25 358.89258 L 198.96875 249.80469 L 87.628906 138.92383 C 83.523349 134.83523 83.511015 128.23837 87.599609 124.13281 L 120.98633 90.609375 C 123.03063 88.556596 125.70155 87.527019 128.375 87.521484 C 131.04845 87.51595 133.72261 88.533828 135.77539 90.578125 L 247.35547 201.69727 L 268.25195 180.92188 L 319.90039 10.845703 A 247.85899 247.92839 0 0 0 253.84766 0.21484375 z "
     id="path4612" />
  <text
     xml:space="preserve"
     style="font-style:normal;font-weight:normal;font-size:40px;line-height:1.25;font-family:sans-serif;letter-spacing:0px;word-spacing:0px;fill:#000000;fill-opacity:1;stroke:none"
     x="168.41818"
     y="185.07413"
     id="text4616"><tspan
       sodipodi:role="line"
       id="tspan4614"
       x="168.41818"
       y="220.46475" /></text>
  <g
     id="g4648"
     transform="rotate(44.881387,245.08098,248.12298)" />
</svg>
