<?xml version="1.0" encoding="UTF-8" standalone="no"?>
<svg
   xmlns:dc="http://purl.org/dc/elements/1.1/"
   xmlns:cc="http://creativecommons.org/ns#"
   xmlns:rdf="http://www.w3.org/1999/02/22-rdf-syntax-ns#"
   xmlns:svg="http://www.w3.org/2000/svg"
   xmlns="http://www.w3.org/2000/svg"
   xmlns:sodipodi="http://sodipodi.sourceforge.net/DTD/sodipodi-0.dtd"
   xmlns:inkscape="http://www.inkscape.org/namespaces/inkscape"
   viewBox="0 0 448 448"
   version="1.1"
   id="svg4"
   sodipodi:docname="github-square.svg"
   width="448"
   height="448"
   inkscape:version="0.92.1 r15371">
  <metadata
     id="metadata10">
    <rdf:RDF>
      <cc:Work
         rdf:about="">
        <dc:format>image/svg+xml</dc:format>
        <dc:type
           rdf:resource="http://purl.org/dc/dcmitype/StillImage" />
        <dc:title></dc:title>
      </cc:Work>
    </rdf:RDF>
  </metadata>
  <defs
     id="defs8" />
  <sodipodi:namedview
     pagecolor="#000000"
     bordercolor="#666666"
     borderopacity="1"
     objecttolerance="10"
     gridtolerance="10"
     guidetolerance="10"
     inkscape:pageopacity="0"
     inkscape:pageshadow="2"
     inkscape:window-width="1600"
     inkscape:window-height="837"
     id="namedview6"
     showgrid="false"
     inkscape:pagecheckerboard="false"
     fit-margin-top="0"
     fit-margin-left="0"
     fit-margin-right="0"
     fit-margin-bottom="0"
     inkscape:zoom="0.4609375"
     inkscape:cx="224"
     inkscape:cy="224"
     inkscape:window-x="-8"
     inkscape:window-y="-8"
     inkscape:window-maximized="1"
     inkscape:current-layer="svg4" />
  <!-- Font Awesome Free 5.15.4 by @fontawesome - https://fontawesome.com License - https://fontawesome.com/license/free (Icons: CC BY 4.0, Fonts: SIL OFL 1.1, Code: MIT License) -->
  <path
     d="M 400,0 H 48 C 21.5,0 0,21.5 0,48 v 352 c 0,26.5 21.5,48 48,48 h 352 c 26.5,0 48,-21.5 48,-48 V 48 C 448,21.5 426.5,0 400,0 Z M 277.3,383.7 c -8.4,1.5 -11.5,-3.7 -11.5,-8 0,-5.4 0.2,-33 0.2,-55.3 0,-15.6 -5.2,-25.5 -11.3,-30.7 37,-4.1 76,-9.2 76,-73.1 0,-18.2 -6.5,-27.3 -17.1,-39 1.7,-4.3 7.4,-22 -1.7,-45 -13.9,-4.3 -45.7,17.9 -45.7,17.9 -13.2,-3.7 -27.5,-5.6 -41.6,-5.6 -14.1,0 -28.4,1.9 -41.6,5.6 0,0 -31.8,-22.2 -45.7,-17.9 -9.1,22.9 -3.5,40.6 -1.7,45 -10.6,11.7 -15.6,20.8 -15.6,39 0,63.6 37.3,69 74.3,73.1 -4.8,4.3 -9.1,11.7 -10.6,22.3 -9.5,4.3 -33.8,11.7 -48.3,-13.9 -9.1,-15.8 -25.5,-17.1 -25.5,-17.1 -16.2,-0.2 -1.1,10.2 -1.1,10.2 10.8,5 18.4,24.2 18.4,24.2 9.7,29.7 56.1,19.7 56.1,19.7 0,13.9 0.2,36.5 0.2,40.6 0,4.3 -3,9.5 -11.5,8 C 106,361.6 59.8,298.8 59.8,225.4 c 0,-91.8 70.2,-161.5 162,-161.5 91.8,0 166.2,69.7 166.2,161.5 0.1,73.4 -44.7,136.3 -110.7,158.3 z m -98.1,-61.1 c -1.9,0.4 -3.7,-0.4 -3.9,-1.7 -0.2,-1.5 1.1,-2.8 3,-3.2 1.9,-0.2 3.7,0.6 3.9,1.9 0.3,1.3 -1,2.6 -3,3 z m -9.5,-0.9 c 0,1.3 -1.5,2.4 -3.5,2.4 -2.2,0.2 -3.7,-0.9 -3.7,-2.4 0,-1.3 1.5,-2.4 3.5,-2.4 1.9,-0.2 3.7,0.9 3.7,2.4 z M 156,320.6 c -0.4,1.3 -2.4,1.9 -4.1,1.3 -1.9,-0.4 -3.2,-1.9 -2.8,-3.2 0.4,-1.3 2.4,-1.9 4.1,-1.5 2,0.6 3.3,2.1 2.8,3.4 z m -12.3,-5.4 c -0.9,1.1 -2.8,0.9 -4.3,-0.6 -1.5,-1.3 -1.9,-3.2 -0.9,-4.1 0.9,-1.1 2.8,-0.9 4.3,0.6 1.3,1.3 1.8,3.3 0.9,4.1 z m -9.1,-9.1 c -0.9,0.6 -2.6,0 -3.7,-1.5 -1.1,-1.5 -1.1,-3.2 0,-3.9 1.1,-0.9 2.8,-0.2 3.7,1.3 1.1,1.5 1.1,3.3 0,4.1 z m -6.5,-9.7 c -0.9,0.9 -2.4,0.4 -3.5,-0.6 -1.1,-1.3 -1.3,-2.8 -0.4,-3.5 0.9,-0.9 2.4,-0.4 3.5,0.6 1.1,1.3 1.3,2.8 0.4,3.5 z m -6.7,-7.4 c -0.4,0.9 -1.7,1.1 -2.8,0.4 -1.3,-0.6 -1.9,-1.7 -1.5,-2.6 0.4,-0.6 1.5,-0.9 2.8,-0.4 1.3,0.7 1.9,1.8 1.5,2.6 z"
     id="path2"
     inkscape:connector-curvature="0"
     style="fill:#ffffff;fill-opacity:1" />
</svg>
