<?xml version="1.0" encoding="UTF-8" standalone="no"?>
<!-- Generator: Adobe Illustrator 18.1.1, SVG Export Plug-In . SVG Version: 6.00 Build 0)  -->

<svg
   xmlns:dc="http://purl.org/dc/elements/1.1/"
   xmlns:cc="http://creativecommons.org/ns#"
   xmlns:rdf="http://www.w3.org/1999/02/22-rdf-syntax-ns#"
   xmlns:svg="http://www.w3.org/2000/svg"
   xmlns="http://www.w3.org/2000/svg"
   xmlns:xlink="http://www.w3.org/1999/xlink"
   xmlns:sodipodi="http://sodipodi.sourceforge.net/DTD/sodipodi-0.dtd"
   xmlns:inkscape="http://www.inkscape.org/namespaces/inkscape"
   version="1.1"
   id="Layer_1"
   x="0px"
   y="0px"
   viewBox="0 0 458.53659 459.34958"
   xml:space="preserve"
   sodipodi:docname="favicon_vorlage.svg"
   inkscape:version="0.92.1 r15371"
   width="458.53659"
   height="459.34958"
   inkscape:export-filename="C:\Users\Martin\lexparency\doq\static\favicon-192x192.png"
   inkscape:export-xdpi="40.200001"
   inkscape:export-ydpi="40.200001"><metadata
     id="metadata3754"><rdf:RDF><cc:Work
         rdf:about=""><dc:format>image/svg+xml</dc:format><dc:type
           rdf:resource="http://purl.org/dc/dcmitype/StillImage" /><dc:title /></cc:Work></rdf:RDF></metadata><defs
     id="defs3752" /><sodipodi:namedview
     pagecolor="#ffffff"
     bordercolor="#666666"
     borderopacity="1"
     objecttolerance="10"
     gridtolerance="10"
     guidetolerance="10"
     inkscape:pageopacity="0"
     inkscape:pageshadow="2"
     inkscape:window-width="1600"
     inkscape:window-height="837"
     id="namedview3750"
     showgrid="false"
     inkscape:zoom="1.23"
     inkscape:cx="93.089434"
     inkscape:cy="227.76677"
     inkscape:window-x="-8"
     inkscape:window-y="-8"
     inkscape:window-maximized="1"
     inkscape:current-layer="Layer_1"
     fit-margin-top="0"
     fit-margin-left="0"
     fit-margin-right="0"
     fit-margin-bottom="0"
     inkscape:pagecheckerboard="true" /><style
     type="text/css"
     id="style3680">
	.st0{display:none;}
	.st1{display:inline;}
	.st2{display:inline;clip-path:url(#SVGID_2_);}
	.st3{fill:#EB562E;}
	.st4{fill:#FAA64E;}
	.st5{fill:#32B8AF;}
	.st6{fill:url(#SVGID_3_);}
	.st7{fill:url(#SVGID_4_);}
	.st8{fill:#FFFFFF;}
	.st9{fill:#E6E6E6;}
	.st10{fill:url(#SVGID_5_);}
	.st11{fill:#4CAF50;}
	.st12{fill:url(#SVGID_6_);}
	.st13{fill:url(#SVGID_7_);}
</style><g
     class="st0"
     id="g3718"
     style="display:none"
     transform="translate(-410.51301,-220.85041)"><defs
       id="defs3683"><path
         id="SVGID_1_"
         d="m 706.9,972.3 c 0,-0.2 0,-0.4 -0.1,-0.6 0,-0.4 -0.1,-0.9 -0.2,-1.3 0,-0.2 -0.1,-0.4 -0.1,-0.6 -0.1,-0.4 -0.2,-0.9 -0.2,-1.3 0,-0.2 -0.1,-0.4 -0.1,-0.5 -0.1,-0.5 -0.2,-0.9 -0.4,-1.4 0,-0.1 -0.1,-0.3 -0.1,-0.4 -0.2,-0.5 -0.4,-1.1 -0.6,-1.6 0,0 0,-0.1 0,-0.1 -2.1,-5.3 -5.9,-9.8 -11,-12.7 L 652.9,928 c -4,-2.3 -8.5,-3.5 -12.9,-3.5 -4.4,0 -8.9,1.2 -12.9,3.5 l -41.2,23.8 c -5.1,2.9 -8.9,7.5 -11,12.7 0,0 0,0.1 0,0.1 -0.2,0.5 -0.4,1.1 -0.6,1.6 0,0.1 -0.1,0.3 -0.1,0.4 -0.1,0.4 -0.3,0.9 -0.4,1.4 0,0.2 -0.1,0.4 -0.1,0.5 -0.1,0.4 -0.2,0.8 -0.2,1.3 0,0.2 -0.1,0.4 -0.1,0.6 -0.1,0.4 -0.1,0.9 -0.2,1.3 0,0.2 0,0.4 -0.1,0.6 0,0.6 -0.1,1.2 -0.1,1.9 v 0.3 21.1 c -0.2,0 -0.2,0 0,0.2 v 21.9 4.2 c 0,9.2 4.9,17.7 12.9,22.3 l 41.2,23.8 c 0.4,0.2 0.8,0.5 1.3,0.7 3.7,1.9 7.6,2.8 11.6,2.8 v 0 0 c 4,0 8,-0.9 11.6,-2.8 0.4,-0.2 0.9,-0.4 1.3,-0.7 l 41.2,-23.8 c 8,-4.6 12.9,-13.1 12.9,-22.3 v -4.2 -22.2 -21.1 -0.3 c 0,-0.6 0,-1.2 -0.1,-1.8 z m -73.2,84.6 c 0.5,0.8 0.9,1.6 1.3,2.5 -0.4,-0.8 -0.9,-1.6 -1.3,-2.5 0,0 0,0 0,0 z m 2.9,5.7 c -0.1,-0.2 -0.2,-0.3 -0.2,-0.5 0.1,0.2 0.1,0.3 0.2,0.5 z m -0.8,-1.6 c -0.2,-0.4 -0.4,-0.7 -0.6,-1.1 0.2,0.3 0.4,0.7 0.6,1.1 z"
         inkscape:connector-curvature="0" /></defs><clipPath
       id="SVGID_2_"
       class="st1"
       style="display:inline"><use
         xlink:href="#SVGID_1_"
         style="overflow:visible"
         id="use3685"
         x="0"
         y="0"
         width="100%"
         height="100%" /></clipPath><g
       class="st2"
       clip-path="url(#SVGID_2_)"
       id="g3716"
       style="display:inline"><path
         class="st3"
         d="m 707,1017.7 v -22.2 c 0,0 -56.7,39.8 -67,76 4,0 8,-0.9 11.6,-2.8 15.8,-27.8 55.4,-51 55.4,-51 z"
         id="path3688"
         inkscape:connector-curvature="0"
         style="fill:#eb562e" /><path
         class="st4"
         d="m 707,995.5 v -21.3 c 0,-5.3 -1.7,-10.4 -4.6,-14.7 -10.7,5.1 -22.7,11.5 -22.7,11.5 l -39.7,72.2 v 28.3 0 c 10.3,-36.2 67,-76 67,-76 z"
         id="path3690"
         inkscape:connector-curvature="0"
         style="fill:#faa64e" /><path
         class="st5"
         d="m 694.1,1044.2 c 8,-4.6 12.9,-13.1 12.9,-22.3 v -4.2 c 0,0 -39.6,23.3 -55.4,51 0.4,-0.2 0.9,-0.4 1.3,-0.7 z"
         id="path3692"
         inkscape:connector-curvature="0"
         style="fill:#32b8af" /><path
         class="st3"
         d="m 573,1017.7 v -22.2 c 0,0 56.7,39.8 67,76 -4,0 -8,-0.9 -11.6,-2.8 -15.8,-27.8 -55.4,-51 -55.4,-51 z"
         id="path3694"
         inkscape:connector-curvature="0"
         style="fill:#eb562e" /><path
         class="st4"
         d="m 573,995.5 v -21.3 c 0,-5.3 1.7,-10.4 4.6,-14.7 10.7,5.1 22.7,11.5 22.7,11.5 l 39.7,72.2 v 28.3 0 c -11.2,-38.5 -70.5,-76.7 -67,-76 z"
         id="path3696"
         inkscape:connector-curvature="0"
         style="fill:#faa64e" /><path
         class="st5"
         d="m 585.9,1044.2 c -8,-4.6 -12.9,-13.1 -12.9,-22.3 v -4.2 c 0,0 39.6,23.3 55.4,51 -0.4,-0.2 -0.9,-0.4 -1.3,-0.7 z"
         id="path3698"
         inkscape:connector-curvature="0"
         style="fill:#32b8af" /><linearGradient
         id="SVGID_3_"
         gradientUnits="userSpaceOnUse"
         x1="640"
         y1="928"
         x2="640"
         y2="1066.0227"><stop
           offset="0"
           style="stop-color:#3D8CCF"
           id="stop3700" /><stop
           offset="1"
           style="stop-color:#60418F"
           id="stop3702" /></linearGradient><path
         class="st6"
         d="M 694.1,951.8 652.9,928 c -4,-2.3 -8.5,-3.5 -12.9,-3.5 -4.4,0 -8.9,1.2 -12.9,3.5 l -41.2,23.8 c -8,4.6 -12.9,13.1 -12.9,22.3 v 0.3 c 0,0 67,58.6 67,97.1 0,-38.5 67,-97.1 67,-97.1 v -0.3 c 0,-9.2 -4.9,-17.7 -12.9,-22.3 z"
         id="path3705"
         inkscape:connector-curvature="0"
         style="fill:url(#SVGID_3_)" /><linearGradient
         id="SVGID_4_"
         gradientUnits="userSpaceOnUse"
         x1="639.86047"
         y1="928"
         x2="639.8606"
         y2="1066.0227"><stop
           offset="0"
           style="stop-color:#3D8CCF"
           id="stop3707" /><stop
           offset="1"
           style="stop-color:#60418F"
           id="stop3709" /></linearGradient><path
         class="st7"
         d="m 640,1071.5 c 0,-3.8 0.7,-7.9 1.9,-12.1 -1.4,-0.2 -2.7,-0.6 -4,-1 1.3,4.6 2.1,8.9 2.1,13.1 z"
         id="path3712"
         inkscape:connector-curvature="0"
         style="fill:url(#SVGID_4_)" /><path
         class="st8"
         d="m 648.5,985 c -18.1,0 -33.2,12.8 -36.7,29.8 -0.5,2.5 -0.8,5 -0.8,7.7 0,17 11.3,31.4 26.8,36 1.3,0.4 2.7,0.7 4,1 5.6,-19.3 22.5,-41.1 37.7,-57.8 -6.6,-10.1 -18,-16.7 -31,-16.7 z"
         id="path3714"
         inkscape:connector-curvature="0"
         style="fill:#ffffff" /></g></g><linearGradient
     id="SVGID_5_"
     gradientUnits="userSpaceOnUse"
     x1="445.10019"
     y1="450.00021"
     x2="667.21582"
     y2="450.00021"><stop
       offset="0"
       style="stop-color:#FFFFFF"
       id="stop3724" /><stop
       offset="1"
       style="stop-color:#000000"
       id="stop3726" /></linearGradient><linearGradient
     id="SVGID_6_"
     gradientUnits="userSpaceOnUse"
     x1="622.3006"
     y1="319.52399"
     x2="651.492"
     y2="348.71539"><stop
       offset="0"
       style="stop-color:#FFFFFF"
       id="stop3733" /><stop
       offset="1"
       style="stop-color:#FFFFFF;stop-opacity:0"
       id="stop3735" /></linearGradient><linearGradient
     id="SVGID_7_"
     gradientUnits="userSpaceOnUse"
     x1="607.3006"
     y1="529.52399"
     x2="636.492"
     y2="558.71539"><stop
       offset="0"
       style="stop-color:#FFFFFF"
       id="stop3742" /><stop
       offset="1"
       style="stop-color:#FFFFFF;stop-opacity:0"
       id="stop3744" /></linearGradient><g
     id="g4541"><rect
       y="0"
       x="0"
       height="459.34958"
       width="458.53659"
       id="rect4571"
       style="fill:#ffffff;fill-opacity:1;stroke:none;stroke-width:1;stroke-linecap:round;stroke-linejoin:round;stroke-miterlimit:4;stroke-dasharray:none;stroke-opacity:1" /><g
       id="g4534"><path
         class="st10"
         d="m 287.60808,307.89042 -2.08543,-4.12154 3.12811,-3.25386 c 12.79589,-13.55772 20.28391,-31.99623 21.04225,-52.06164 0.85289,-21.04159 -5.30817,-39.48009 -18.2936,-54.66474 -10.99507,-12.90694 -26.82403,-23.42773 -47.2027,-31.45391 -17.25094,-6.72463 -29.3832,-15.18464 -36.20778,-24.9462 -7.01402,-10.08695 -6.63485,-19.08927 -6.54009,-22.88543 0.85314,-21.15004 16.39777,-36.660072 37.06062,-36.660072 21.32671,0.108463 31.37385,11.388486 36.01846,20.824658 l 1.13737,1.518464 35.92328,-0.325384 c -0.66366,-2.603082 -1.32696,-4.880779 -1.89556,-6.507706 h -0.0951 l -1.13713,-3.145391 c -3.9812,-11.930794 -20.85272,-50.977027 -69.8563,-50.977027 h -0.18977 -0.0932 c -38.86151,0 -69.38203,31.670834 -70.9936,73.645538 -0.56876,14.53387 2.27489,27.98313 8.34107,39.91392 l 2.08547,4.12155 -3.12805,3.25385 c -12.79586,13.55772 -20.28396,31.99622 -21.04231,52.06165 -0.85288,21.04157 5.30805,39.48008 18.29347,54.66472 10.99529,12.90695 26.82402,23.42775 47.20269,31.45391 17.25109,6.72463 29.38332,15.18465 36.20794,24.94621 7.01396,10.08694 6.63484,19.08927 6.54007,22.88542 -0.85312,21.15005 -16.39773,36.66009 -37.06076,36.66009 -21.3266,-0.10847 -31.37371,-11.38849 -36.01835,-20.82467 l -1.2321,-1.51846 -35.82856,0.32539 c 0.66364,2.60308 1.32688,4.88078 1.8956,6.5077 h 0.0954 l 1.13693,3.14539 c 3.9813,11.9308 20.85287,50.97703 69.76157,50.97703 0.0935,0 0.0935,0 0.18979,0 h 0.18965 c 38.86139,0 69.38212,-31.67083 70.99364,-73.64553 0.66334,-14.64234 -2.18017,-27.98314 -8.34117,-39.91393 z m -12.03752,-61.17244 c -0.4742,11.17156 -5.0236,21.04159 -12.98573,27.87468 l -2.74866,2.38616 -2.93825,-1.95231 c -7.67762,-5.09771 -16.58731,-9.54464 -26.44503,-13.44926 -43.88516,-17.24543 -43.03229,-40.34778 -42.74789,-47.9401 0.47403,-11.17157 5.02358,-21.15004 12.98571,-27.87467 l 2.74864,-2.38616 2.93829,1.95231 c 7.6775,5.0977 16.58721,9.54464 26.44487,13.44926 43.9802,17.24542 43.03228,40.34777 42.74805,47.94009 z"
         id="path3729"
         style="fill:#000000;fill-opacity:1;stroke-width:1.01392865"
         inkscape:connector-curvature="0" /><ellipse
         class="st12"
         cx="239.84894"
         cy="115.5877"
         id="circle3738"
         style="fill:#4caf50;fill-opacity:1;stroke-width:1.99410594"
         rx="37.814548"
         ry="37.961617" /><ellipse
         style="fill:#4caf50;fill-opacity:1;stroke-width:2.00829911"
         id="circle3738-6"
         cy="344.60904"
         cx="223.80064"
         class="st12"
         rx="38.354839"
         ry="37.961617" /></g></g></svg>