<?xml version="1.0" encoding="UTF-8" standalone="no"?>
<!-- Generator: Adobe Illustrator 18.1.1, SVG Export Plug-In . SVG Version: 6.00 Build 0)  -->

<svg
   xmlns:dc="http://purl.org/dc/elements/1.1/"
   xmlns:cc="http://creativecommons.org/ns#"
   xmlns:rdf="http://www.w3.org/1999/02/22-rdf-syntax-ns#"
   xmlns:svg="http://www.w3.org/2000/svg"
   xmlns="http://www.w3.org/2000/svg"
   xmlns:xlink="http://www.w3.org/1999/xlink"
   xmlns:sodipodi="http://sodipodi.sourceforge.net/DTD/sodipodi-0.dtd"
   xmlns:inkscape="http://www.inkscape.org/namespaces/inkscape"
   version="1.1"
   id="Layer_1"
   x="0px"
   y="0px"
   viewBox="0 0 460.5 460.5"
   xml:space="preserve"
   sodipodi:docname="lexparency_transparent.svg"
   width="460.5"
   height="460.5"
   inkscape:version="0.92.1 r15371"><metadata
     id="metadata76"><rdf:RDF><cc:Work
         rdf:about=""><dc:format>image/svg+xml</dc:format><dc:type
           rdf:resource="http://purl.org/dc/dcmitype/StillImage" /><dc:title /></cc:Work></rdf:RDF></metadata><defs
     id="defs74" /><sodipodi:namedview
     pagecolor="#ffffff"
     bordercolor="#666666"
     borderopacity="1"
     objecttolerance="10"
     gridtolerance="10"
     guidetolerance="10"
     inkscape:pageopacity="0"
     inkscape:pageshadow="2"
     inkscape:window-width="1600"
     inkscape:window-height="837"
     id="namedview72"
     showgrid="false"
     fit-margin-top="0"
     fit-margin-left="0"
     fit-margin-right="0"
     fit-margin-bottom="0"
     inkscape:zoom="0.26222222"
     inkscape:cx="-419.91187"
     inkscape:cy="230.2"
     inkscape:window-x="-8"
     inkscape:window-y="-8"
     inkscape:window-maximized="1"
     inkscape:current-layer="Layer_1" /><style
     type="text/css"
     id="style2">
	.st0{display:none;}
	.st1{display:inline;}
	.st2{display:inline;clip-path:url(#SVGID_2_);}
	.st3{fill:#EB562E;}
	.st4{fill:#FAA64E;}
	.st5{fill:#32B8AF;}
	.st6{fill:url(#SVGID_3_);}
	.st7{fill:url(#SVGID_4_);}
	.st8{fill:#FFFFFF;}
	.st9{fill:#E6E6E6;}
	.st10{fill:url(#SVGID_5_);}
	.st11{fill:#4CAF50;}
	.st12{fill:url(#SVGID_6_);}
	.st13{fill:url(#SVGID_7_);}
</style><g
     class="st0"
     id="g40"
     style="display:none"
     transform="translate(-409.7,-219.7)"><defs
       id="defs5"><path
         id="SVGID_1_"
         d="m 706.9,972.3 c 0,-0.2 0,-0.4 -0.1,-0.6 0,-0.4 -0.1,-0.9 -0.2,-1.3 0,-0.2 -0.1,-0.4 -0.1,-0.6 -0.1,-0.4 -0.2,-0.9 -0.2,-1.3 0,-0.2 -0.1,-0.4 -0.1,-0.5 -0.1,-0.5 -0.2,-0.9 -0.4,-1.4 0,-0.1 -0.1,-0.3 -0.1,-0.4 -0.2,-0.5 -0.4,-1.1 -0.6,-1.6 0,0 0,-0.1 0,-0.1 -2.1,-5.3 -5.9,-9.8 -11,-12.7 L 652.9,928 c -4,-2.3 -8.5,-3.5 -12.9,-3.5 -4.4,0 -8.9,1.2 -12.9,3.5 l -41.2,23.8 c -5.1,2.9 -8.9,7.5 -11,12.7 0,0 0,0.1 0,0.1 -0.2,0.5 -0.4,1.1 -0.6,1.6 0,0.1 -0.1,0.3 -0.1,0.4 -0.1,0.4 -0.3,0.9 -0.4,1.4 0,0.2 -0.1,0.4 -0.1,0.5 -0.1,0.4 -0.2,0.8 -0.2,1.3 0,0.2 -0.1,0.4 -0.1,0.6 -0.1,0.4 -0.1,0.9 -0.2,1.3 0,0.2 0,0.4 -0.1,0.6 0,0.6 -0.1,1.2 -0.1,1.9 v 0.3 21.1 c -0.2,0 -0.2,0 0,0.2 v 21.9 4.2 c 0,9.2 4.9,17.7 12.9,22.3 l 41.2,23.8 c 0.4,0.2 0.8,0.5 1.3,0.7 3.7,1.9 7.6,2.8 11.6,2.8 v 0 0 c 4,0 8,-0.9 11.6,-2.8 0.4,-0.2 0.9,-0.4 1.3,-0.7 l 41.2,-23.8 c 8,-4.6 12.9,-13.1 12.9,-22.3 v -4.2 -22.2 -21.1 -0.3 c 0,-0.6 0,-1.2 -0.1,-1.8 z m -73.2,84.6 c 0.5,0.8 0.9,1.6 1.3,2.5 -0.4,-0.8 -0.9,-1.6 -1.3,-2.5 0,0 0,0 0,0 z m 2.9,5.7 c -0.1,-0.2 -0.2,-0.3 -0.2,-0.5 0.1,0.2 0.1,0.3 0.2,0.5 z m -0.8,-1.6 c -0.2,-0.4 -0.4,-0.7 -0.6,-1.1 0.2,0.3 0.4,0.7 0.6,1.1 z"
         inkscape:connector-curvature="0" /></defs><clipPath
       id="SVGID_2_"
       class="st1"
       style="display:inline"><use
         xlink:href="#SVGID_1_"
         style="overflow:visible"
         id="use7"
         x="0"
         y="0"
         width="100%"
         height="100%" /></clipPath><g
       class="st2"
       clip-path="url(#SVGID_2_)"
       id="g38"
       style="display:inline"><path
         class="st3"
         d="m 707,1017.7 v -22.2 c 0,0 -56.7,39.8 -67,76 4,0 8,-0.9 11.6,-2.8 15.8,-27.8 55.4,-51 55.4,-51 z"
         id="path10"
         inkscape:connector-curvature="0"
         style="fill:#eb562e" /><path
         class="st4"
         d="m 707,995.5 v -21.3 c 0,-5.3 -1.7,-10.4 -4.6,-14.7 -10.7,5.1 -22.7,11.5 -22.7,11.5 l -39.7,72.2 v 28.3 0 c 10.3,-36.2 67,-76 67,-76 z"
         id="path12"
         inkscape:connector-curvature="0"
         style="fill:#faa64e" /><path
         class="st5"
         d="m 694.1,1044.2 c 8,-4.6 12.9,-13.1 12.9,-22.3 v -4.2 c 0,0 -39.6,23.3 -55.4,51 0.4,-0.2 0.9,-0.4 1.3,-0.7 z"
         id="path14"
         inkscape:connector-curvature="0"
         style="fill:#32b8af" /><path
         class="st3"
         d="m 573,1017.7 v -22.2 c 0,0 56.7,39.8 67,76 -4,0 -8,-0.9 -11.6,-2.8 -15.8,-27.8 -55.4,-51 -55.4,-51 z"
         id="path16"
         inkscape:connector-curvature="0"
         style="fill:#eb562e" /><path
         class="st4"
         d="m 573,995.5 v -21.3 c 0,-5.3 1.7,-10.4 4.6,-14.7 10.7,5.1 22.7,11.5 22.7,11.5 l 39.7,72.2 v 28.3 0 c -11.2,-38.5 -70.5,-76.7 -67,-76 z"
         id="path18"
         inkscape:connector-curvature="0"
         style="fill:#faa64e" /><path
         class="st5"
         d="m 585.9,1044.2 c -8,-4.6 -12.9,-13.1 -12.9,-22.3 v -4.2 c 0,0 39.6,23.3 55.4,51 -0.4,-0.2 -0.9,-0.4 -1.3,-0.7 z"
         id="path20"
         inkscape:connector-curvature="0"
         style="fill:#32b8af" /><linearGradient
         id="SVGID_3_"
         gradientUnits="userSpaceOnUse"
         x1="640"
         y1="928"
         x2="640"
         y2="1066.0227"><stop
           offset="0"
           style="stop-color:#3D8CCF"
           id="stop22" /><stop
           offset="1"
           style="stop-color:#60418F"
           id="stop24" /></linearGradient><path
         class="st6"
         d="M 694.1,951.8 652.9,928 c -4,-2.3 -8.5,-3.5 -12.9,-3.5 -4.4,0 -8.9,1.2 -12.9,3.5 l -41.2,23.8 c -8,4.6 -12.9,13.1 -12.9,22.3 v 0.3 c 0,0 67,58.6 67,97.1 0,-38.5 67,-97.1 67,-97.1 v -0.3 c 0,-9.2 -4.9,-17.7 -12.9,-22.3 z"
         id="path27"
         inkscape:connector-curvature="0"
         style="fill:url(#SVGID_3_)" /><linearGradient
         id="SVGID_4_"
         gradientUnits="userSpaceOnUse"
         x1="639.86047"
         y1="928"
         x2="639.8606"
         y2="1066.0227"><stop
           offset="0"
           style="stop-color:#3D8CCF"
           id="stop29" /><stop
           offset="1"
           style="stop-color:#60418F"
           id="stop31" /></linearGradient><path
         class="st7"
         d="m 640,1071.5 c 0,-3.8 0.7,-7.9 1.9,-12.1 -1.4,-0.2 -2.7,-0.6 -4,-1 1.3,4.6 2.1,8.9 2.1,13.1 z"
         id="path34"
         inkscape:connector-curvature="0"
         style="fill:url(#SVGID_4_)" /><path
         class="st8"
         d="m 648.5,985 c -18.1,0 -33.2,12.8 -36.7,29.8 -0.5,2.5 -0.8,5 -0.8,7.7 0,17 11.3,31.4 26.8,36 1.3,0.4 2.7,0.7 4,1 5.6,-19.3 22.5,-41.1 37.7,-57.8 -6.6,-10.1 -18,-16.7 -31,-16.7 z"
         id="path36"
         inkscape:connector-curvature="0"
         style="fill:#ffffff" /></g></g><path
     class="st8"
     d="M 364.5,460.5 H 96.1 C 43,460.5 0,417.5 0,364.4 V 96.1 C 0,43 43,0 96.1,0 h 268.3 c 53.1,0 96.1,43 96.1,96.1 v 268.3 c 0,53.1 -43,96.1 -96,96.1 z"
     id="path42"
     inkscape:connector-curvature="0"
     style="fill:none" /><path
     class="st9"
     d="M 460.3,364.5 V 233.8 L 291.5,72.7 c 0,0 -31.6,-2.9 -45,0.6 -13.4,3.5 -38.5,11.3 -49.1,15 -10.6,3.7 -5.1,35.7 -6,54.6 -0.9,18.9 0.5,34.4 -2.8,50.2 -3.3,15.8 -19.1,72.8 -19.1,72.8 l 51.6,58.5 -12.1,23.5 28.5,28.6 -71.3,8.6 66.8,75.2 h 131.6 c 53,0 95.7,-42.7 95.7,-95.8 z"
     id="path44"
     inkscape:connector-curvature="0"
     style="fill:#e6e6e6" /><linearGradient
     id="SVGID_5_"
     gradientUnits="userSpaceOnUse"
     x1="445.10019"
     y1="450.00021"
     x2="667.21582"
     y2="450.00021"
     gradientTransform="translate(-409.7,-219.7)"><stop
       offset="0"
       style="stop-color:#FFFFFF"
       id="stop46" /><stop
       offset="1"
       style="stop-color:#000000"
       id="stop48" /></linearGradient><path
     class="st10"
     d="m 289.3,301.9 -2.2,-3.8 3.3,-3 c 13.5,-12.5 21.4,-29.5 22.2,-48 0.9,-19.4 -5.6,-36.4 -19.3,-50.4 -11.6,-11.9 -28.3,-21.6 -49.8,-29 -18.2,-6.2 -31,-14 -38.2,-23 -7.4,-9.3 -7,-17.6 -6.9,-21.1 0.9,-19.5 17.3,-33.8 39.1,-33.8 22.5,0.1 33.1,10.5 38,19.2 l 1.2,1.4 37.9,-0.3 c -0.7,-2.4 -1.4,-4.5 -2,-6 h -0.1 l -1.2,-2.9 c -4.2,-11 -22,-47 -73.7,-47 h -0.2 -0.1 c -41,0 -73.2,29.2 -74.9,67.9 -0.6,13.4 2.4,25.8 8.8,36.8 l 2.2,3.8 -3.3,3 c -13.5,12.5 -21.4,29.5 -22.2,48 -0.9,19.4 5.6,36.4 19.3,50.4 11.6,11.9 28.3,21.6 49.8,29 18.2,6.2 31,14 38.2,23 7.4,9.3 7,17.6 6.9,21.1 -0.9,19.5 -17.3,33.8 -39.1,33.8 -22.5,-0.1 -33.1,-10.5 -38,-19.2 l -1.3,-1.4 -37.8,0.3 c 0.7,2.4 1.4,4.5 2,6 h 0.1 l 1.2,2.9 c 4.2,11 22,47 73.6,47 0.1,0 0.1,0 0.2,0 h 0.2 c 41,0 73.2,-29.2 74.9,-67.9 0.7,-13.5 -2.3,-25.8 -8.8,-36.8 z m -12.7,-56.4 c -0.5,10.3 -5.3,19.4 -13.7,25.7 l -2.9,2.2 -3.1,-1.8 C 248.8,266.9 239.4,262.8 229,259.2 182.7,243.3 183.6,222 183.9,215 c 0.5,-10.3 5.3,-19.5 13.7,-25.7 l 2.9,-2.2 3.1,1.8 c 8.1,4.7 17.5,8.8 27.9,12.4 46.4,15.9 45.4,37.2 45.1,44.2 z"
     id="path51"
     inkscape:connector-curvature="0"
     style="fill:url(#SVGID_5_)" /><circle
     class="st11"
     cx="237.39998"
     cy="124.59999"
     r="19"
     id="circle53"
     style="fill:#4caf50" /><linearGradient
     id="SVGID_6_"
     gradientUnits="userSpaceOnUse"
     x1="622.3006"
     y1="319.52399"
     x2="651.492"
     y2="348.71539"
     gradientTransform="translate(-409.7,-219.7)"><stop
       offset="0"
       style="stop-color:#FFFFFF"
       id="stop55" /><stop
       offset="1"
       style="stop-color:#FFFFFF;stop-opacity:0"
       id="stop57" /></linearGradient><circle
     class="st12"
     cx="237.39998"
     cy="124.59999"
     r="19"
     id="circle60"
     style="fill:url(#SVGID_6_)" /><circle
     class="st11"
     cx="222.39998"
     cy="334.59998"
     r="19"
     id="circle62"
     style="fill:#4caf50" /><linearGradient
     id="SVGID_7_"
     gradientUnits="userSpaceOnUse"
     x1="607.3006"
     y1="529.52399"
     x2="636.492"
     y2="558.71539"
     gradientTransform="translate(-409.7,-219.7)"><stop
       offset="0"
       style="stop-color:#FFFFFF"
       id="stop64" /><stop
       offset="1"
       style="stop-color:#FFFFFF;stop-opacity:0"
       id="stop66" /></linearGradient><circle
     class="st13"
     cx="222.39998"
     cy="334.59998"
     r="19"
     id="circle69"
     style="fill:url(#SVGID_7_)" /></svg>