<?xml version="1.0" encoding="UTF-8" standalone="no"?>
<svg
   xmlns:dc="http://purl.org/dc/elements/1.1/"
   xmlns:cc="http://creativecommons.org/ns#"
   xmlns:rdf="http://www.w3.org/1999/02/22-rdf-syntax-ns#"
   xmlns:svg="http://www.w3.org/2000/svg"
   xmlns="http://www.w3.org/2000/svg"
   xmlns:sodipodi="http://sodipodi.sourceforge.net/DTD/sodipodi-0.dtd"
   xmlns:inkscape="http://www.inkscape.org/namespaces/inkscape"
   viewBox="0 0 496 496"
   version="1.1"
   id="svg4"
   sodipodi:docname="github.svg"
   width="496"
   height="496"
   inkscape:version="0.92.1 r15371">
  <metadata
     id="metadata10">
    <rdf:RDF>
      <cc:Work
         rdf:about="">
        <dc:format>image/svg+xml</dc:format>
        <dc:type
           rdf:resource="http://purl.org/dc/dcmitype/StillImage" />
        <dc:title></dc:title>
      </cc:Work>
    </rdf:RDF>
  </metadata>
  <defs
     id="defs8" />
  <sodipodi:namedview
     pagecolor="#000000"
     bordercolor="#666666"
     borderopacity="1"
     objecttolerance="10"
     gridtolerance="10"
     guidetolerance="10"
     inkscape:pageopacity="0"
     inkscape:pageshadow="2"
     inkscape:window-width="1600"
     inkscape:window-height="837"
     id="namedview6"
     showgrid="false"
     fit-margin-top="0"
     fit-margin-left="0"
     fit-margin-right="0"
     fit-margin-bottom="0"
     inkscape:pagecheckerboard="true"
     inkscape:zoom="0.4609375"
     inkscape:cx="-120.81356"
     inkscape:cy="235.60744"
     inkscape:window-x="-8"
     inkscape:window-y="-8"
     inkscape:window-maximized="1"
     inkscape:current-layer="svg4" />
  <!-- Font Awesome Free 5.15.4 by @fontawesome - https://fontawesome.com License - https://fontawesome.com/license/free (Icons: CC BY 4.0, Fonts: SIL OFL 1.1, Code: MIT License) -->
  <path
     d="m 175.75161,383.82675 c 0,1.82941 -2.10375,3.29309 -4.75649,3.29309 -3.01851,0.27437 -5.12233,-1.18907 -5.12233,-3.29309 0,-1.82936 2.10382,-3.29293 4.75643,-3.29293 2.74422,-0.2743 5.12239,1.18914 5.12239,3.29293 z m -28.44761,-4.1162 c -0.6404,1.8294 1.18902,3.93332 3.9333,4.48216 2.37817,0.91466 5.12239,0 5.67125,-1.82943 0.54871,-1.82946 -1.18914,-3.93333 -3.9333,-4.75657 -2.37835,-0.64024 -5.03103,0.27444 -5.67125,2.10384 z m 40.43045,-1.55505 c -2.65261,0.64034 -4.48207,2.37832 -4.20765,4.48222 0.27438,1.82937 2.65261,3.01844 5.39683,2.37819 2.65265,-0.64036 4.48207,-2.37819 4.20769,-4.20764 -0.27448,-1.73801 -2.74413,-2.92712 -5.39687,-2.65277 z M 247.92303,27.635719 C 121.05156,27.635719 24,123.95552 24,250.8269 c 0,101.44215 63.847299,188.24888 155.04469,218.80043 11.7084,2.10388 15.82461,-5.12246 15.82461,-11.06806 0,-5.67125 -0.27442,-36.95462 -0.27442,-56.16372 0,0 -64.03031,13.72081 -77.47659,-27.25853 0,0 -10.42781,-26.61827 -25.429173,-33.47866 0,0 -20.947041,-14.36114 1.463543,-14.08667 0,0 22.77651,1.82947 35.3081,23.59971 20.03226,35.30812 53.60244,25.15474 66.68292,19.11758 2.10385,-14.63551 8.04948,-24.78883 14.63543,-30.82596 -51.13261,-5.67125 -102.72274,-13.08055 -102.72274,-101.07629 0,-25.1548 6.95185,-37.77787 21.58735,-53.87705 -2.37814,-5.9455 -10.15341,-30.45995 2.37823,-62.10922 19.11769,-5.94571 63.11555,24.69741 63.11555,24.69741 18.29441,-5.12239 37.96077,-7.77514 57.4443,-7.77514 19.4834,0 39.15003,2.65275 57.4442,7.77514 0,0 43.99804,-30.73443 63.11561,-24.69741 12.53155,31.74075 4.75655,56.16372 2.37823,62.10922 14.63552,16.19066 23.59958,28.8137 23.59958,53.87705 0,88.2702 -53.87668,95.31353 -105.00945,101.07629 8.41538,7.22626 15.55019,20.94695 15.55019,42.44288 0,30.8259 -0.27438,68.96982 -0.27438,76.47039 0,5.94569 4.20763,13.17198 15.82457,11.06801 C 415.68215,439.07578 477.7,352.26905 477.7,250.8269 477.7,123.95552 374.79422,27.635719 247.92303,27.635719 Z M 112.91056,343.12197 c -1.18912,0.91461 -0.91471,3.01851 0.6403,4.75643 1.46357,1.46353 3.56743,2.10382 4.75649,0.91482 1.18914,-0.91482 0.91472,-3.0187 -0.64033,-4.75664 -1.46349,-1.46353 -3.56733,-2.10385 -4.75646,-0.91461 z m -9.87894,-7.40934 c -0.6403,1.18917 0.2744,2.6527 2.10385,3.56741 1.46354,0.91458 3.29298,0.64033 3.93328,-0.64032 0.64031,-1.189 -0.27443,-2.65261 -2.10385,-3.56731 -1.82943,-0.54904 -3.29297,-0.27443 -3.93328,0.64022 z m 29.63689,32.56399 c -1.46362,1.18915 -0.91476,3.93328 1.18914,5.67125 2.10385,2.10384 4.75653,2.37827 5.94561,0.9147 1.18909,-1.18916 0.64025,-3.93327 -1.18908,-5.67125 -2.01246,-2.10387 -4.75653,-2.37832 -5.94567,-0.9147 z m -10.42783,-13.44639 c -1.46349,0.91472 -1.46349,3.29304 0,5.39703 1.46356,2.10365 3.93336,3.01851 5.12248,2.10365 1.46362,-1.18916 1.46362,-3.56732 0,-5.67125 -1.28066,-2.10365 -3.65892,-3.01852 -5.12248,-1.82943 z"
     id="path2"
     inkscape:connector-curvature="0"
     style="fill:#ffffff;fill-opacity:1;stroke-width:0.91471684" />
</svg>
