<?xml version="1.0" encoding="UTF-8" standalone="no"?>
<svg
   xmlns:dc="http://purl.org/dc/elements/1.1/"
   xmlns:cc="http://creativecommons.org/ns#"
   xmlns:rdf="http://www.w3.org/1999/02/22-rdf-syntax-ns#"
   xmlns:svg="http://www.w3.org/2000/svg"
   xmlns="http://www.w3.org/2000/svg"
   xmlns:sodipodi="http://sodipodi.sourceforge.net/DTD/sodipodi-0.dtd"
   xmlns:inkscape="http://www.inkscape.org/namespaces/inkscape"
   viewBox="0 0 373.15234 338.58398"
   version="1.1"
   id="svg4"
   sodipodi:docname="metadata.svg"
   inkscape:version="0.92.1 r15371"
   width="373.15234"
   height="338.58398">
  <metadata
     id="metadata10">
    <rdf:RDF>
      <cc:Work
         rdf:about="">
        <dc:format>image/svg+xml</dc:format>
        <dc:type
           rdf:resource="http://purl.org/dc/dcmitype/StillImage" />
      </cc:Work>
    </rdf:RDF>
  </metadata>
  <defs
     id="defs8" />
  <sodipodi:namedview
     pagecolor="#ffffff"
     bordercolor="#666666"
     borderopacity="1"
     objecttolerance="10"
     gridtolerance="10"
     guidetolerance="10"
     inkscape:pageopacity="0"
     inkscape:pageshadow="2"
     inkscape:window-width="1600"
     inkscape:window-height="837"
     id="namedview6"
     showgrid="false"
     inkscape:zoom="0.91895868"
     inkscape:cx="36.206337"
     inkscape:cy="176.37305"
     inkscape:window-x="-8"
     inkscape:window-y="-8"
     inkscape:window-maximized="1"
     inkscape:current-layer="svg4" />
  <path
     style="fill:#ffffff;fill-opacity:1;stroke:#000000;stroke-width:0;stroke-linecap:round;stroke-linejoin:round;stroke-miterlimit:4;stroke-dasharray:none;stroke-opacity:1"
     d="M 47.652344,5e-7 C 21.252723,5e-7 5e-7,21.25273 5e-7,47.652351 V 290.93164 c 0,26.39962 21.2527225,47.65235 47.6523435,47.65235 H 325.49805 c 26.39962,0 47.6543,-21.25273 47.6543,-47.65235 V 47.65235 C 373.15235,21.25273 351.89767,4.9999998e-7 325.49805,4.9999998e-7 Z M 202.62891,61.841801 c 0.86521,-0.0119 1.74961,0.10664 2.63086,0.369139 l 24.40039,7 c 4.7,1.300001 7.4,6.20039 6,10.90039 l -54.69922,188.19922 c -1.3,4.6 -6.20039,7.4 -10.90039,6 l -24.40039,-7.09961 c -4.7,-1.3 -7.4,-6.20039 -6,-10.90039 L 194.35938,68.21094 c 1.1375,-3.81875 4.52029,-6.31741 8.26953,-6.369139 z m -80.26953,43.482419 c 2.25,0.0625 4.50117,0.98711 6.20117,2.78711 l 17.40039,18.59961 0.19922,0.19922 c 3.2,3.6 2.79922,9.20039 -0.80078,12.40039 l -32.79883,28.90039 32.79883,28.90039 0.20117,0.19922 c 3.5,3.3 3.70039,8.90039 0.40039,12.40039 l -17.40039,18.59961 c -1.6,1.8 -4.00039,2.80078 -6.40039,2.80078 -2.2,0 -4.4,-0.90039 -6,-2.40039 L 58.460937,174.61133 c -3.7,-3.4 -3.7,-9.30078 0,-12.80078 l 57.699223,-54.09961 c 1.7,-1.65 3.94922,-2.44922 6.19922,-2.38672 z m 130.52539,0 c 2.25,-0.0625 4.52539,0.73672 6.27539,2.38672 l 57.69922,54.09961 c 3.7,3.4 3.7,9.30078 0,12.80078 l -57.69922,54.09961 c -3.5,3.3 -9.10039,3.09961 -12.40039,-0.40039 l -17.40039,-18.59961 -0.19922,-0.19922 c -3.2,-3.6 -2.79922,-9.20039 0.80078,-12.40039 l 32.79883,-28.90039 -32.79883,-28.90039 -0.20117,-0.19922 c -3.5,-3.3 -3.70039,-8.90039 -0.40039,-12.40039 l 17.40039,-18.59961 c 1.65,-1.8 3.875,-2.72461 6.125,-2.78711 z"
     id="rect4482"
     inkscape:connector-curvature="0" />
</svg>
