<?xml version="1.0" encoding="UTF-8" standalone="no"?>
<svg
   xmlns:dc="http://purl.org/dc/elements/1.1/"
   xmlns:cc="http://creativecommons.org/ns#"
   xmlns:rdf="http://www.w3.org/1999/02/22-rdf-syntax-ns#"
   xmlns:svg="http://www.w3.org/2000/svg"
   xmlns="http://www.w3.org/2000/svg"
   xmlns:sodipodi="http://sodipodi.sourceforge.net/DTD/sodipodi-0.dtd"
   xmlns:inkscape="http://www.inkscape.org/namespaces/inkscape"
   viewBox="0 0 448 448"
   version="1.1"
   id="svg4"
   sodipodi:docname="share-alt-square.svg"
   width="448"
   height="448"
   inkscape:version="0.92.1 r15371">
  <metadata
     id="metadata10">
    <rdf:RDF>
      <cc:Work
         rdf:about="">
        <dc:format>image/svg+xml</dc:format>
        <dc:type
           rdf:resource="http://purl.org/dc/dcmitype/StillImage" />
        <dc:title></dc:title>
      </cc:Work>
    </rdf:RDF>
  </metadata>
  <defs
     id="defs8" />
  <sodipodi:namedview
     pagecolor="#ffffff"
     bordercolor="#666666"
     borderopacity="1"
     objecttolerance="10"
     gridtolerance="10"
     guidetolerance="10"
     inkscape:pageopacity="0"
     inkscape:pageshadow="2"
     inkscape:window-width="1600"
     inkscape:window-height="837"
     id="namedview6"
     showgrid="false"
     inkscape:pagecheckerboard="true"
     fit-margin-top="0"
     fit-margin-left="0"
     fit-margin-right="0"
     fit-margin-bottom="0"
     inkscape:zoom="0.4609375"
     inkscape:cx="224"
     inkscape:cy="192"
     inkscape:window-x="-8"
     inkscape:window-y="-8"
     inkscape:window-maximized="1"
     inkscape:current-layer="svg4" />
  <path
     d="m 448,48 v 352 c 0,26.51 -21.49,48 -48,48 H 48 C 21.49,448 0,426.51 0,400 V 48 C 0,21.49 21.49,0 48,0 h 352 c 26.51,0 48,21.49 48,48 z M 304,264 c -14.562,0 -27.823,5.561 -37.783,14.671 l -67.958,-40.775 a 56.339,56.339 0 0 0 0,-27.793 l 67.958,-40.775 C 276.177,178.439 289.438,184 304,184 c 30.928,0 56,-25.072 56,-56 0,-30.928 -25.072,-56 -56,-56 -30.928,0 -56,25.072 -56,56 0,4.797 0.605,9.453 1.74,13.897 l -67.958,40.775 C 171.823,173.561 158.562,168 144,168 c -30.928,0 -56,25.072 -56,56 0,30.928 25.072,56 56,56 14.562,0 27.823,-5.561 37.783,-14.671 l 67.958,40.775 a 56.088,56.088 0 0 0 -1.74,13.897 c 0,30.928 25.072,56 56,56 30.928,0 56,-25.072 56,-56 C 360,289.072 334.928,264 304,264 Z"
     id="path2"
     inkscape:connector-curvature="0"
     style="fill:#ffffff;fill-opacity:1" />
</svg>
