<?xml version="1.0" encoding="UTF-8" standalone="no"?>
<!-- Generator: Adobe Illustrator 16.0.0, SVG Export Plug-In . SVG Version: 6.00 Build 0)  -->

<svg
   xmlns:dc="http://purl.org/dc/elements/1.1/"
   xmlns:cc="http://creativecommons.org/ns#"
   xmlns:rdf="http://www.w3.org/1999/02/22-rdf-syntax-ns#"
   xmlns:svg="http://www.w3.org/2000/svg"
   xmlns="http://www.w3.org/2000/svg"
   xmlns:sodipodi="http://sodipodi.sourceforge.net/DTD/sodipodi-0.dtd"
   xmlns:inkscape="http://www.inkscape.org/namespaces/inkscape"
   version="1.1"
   id="Capa_1"
   x="0px"
   y="0px"
   width="438.536px"
   height="438.536px"
   viewBox="0 0 438.536 438.536"
   style="enable-background:new 0 0 438.536 438.536;"
   xml:space="preserve"
   sodipodi:docname="twitter.svg"
   inkscape:version="0.92.1 r15371"><metadata
     id="metadata41"><rdf:RDF><cc:Work
         rdf:about=""><dc:format>image/svg+xml</dc:format><dc:type
           rdf:resource="http://purl.org/dc/dcmitype/StillImage" /><dc:title></dc:title></cc:Work></rdf:RDF></metadata><defs
     id="defs39" /><sodipodi:namedview
     pagecolor="#ffffff"
     bordercolor="#666666"
     borderopacity="1"
     objecttolerance="10"
     gridtolerance="10"
     guidetolerance="10"
     inkscape:pageopacity="0"
     inkscape:pageshadow="2"
     inkscape:window-width="1600"
     inkscape:window-height="837"
     id="namedview37"
     showgrid="false"
     inkscape:zoom="1.4"
     inkscape:cx="219.26801"
     inkscape:cy="219.26801"
     inkscape:window-x="-8"
     inkscape:window-y="-8"
     inkscape:window-maximized="1"
     inkscape:current-layer="Capa_1"
     inkscape:pagecheckerboard="true" /><g
     id="g4"
     style="fill:#fbfbfb;fill-opacity:1"
     transform="matrix(0.84372791,0,0,0.84372791,34.000469,34.531094)"><path
       d="M 414.41,24.123 C 398.333,8.042 378.963,0 356.315,0 H 82.228 C 59.58,0 40.21,8.042 24.126,24.123 8.045,40.207 0.003,59.576 0.003,82.225 v 274.084 c 0,22.647 8.042,42.018 24.123,58.102 16.084,16.084 35.454,24.126 58.102,24.126 h 274.084 c 22.648,0 42.018,-8.042 58.095,-24.126 16.084,-16.084 24.126,-35.454 24.126,-58.102 V 82.225 C 438.532,59.576 430.49,40.204 414.41,24.123 Z m -78.939,144.612 c 0.191,1.713 0.288,4.278 0.288,7.71 0,15.989 -2.334,32.025 -6.995,48.104 -4.661,16.087 -11.8,31.504 -21.416,46.254 -9.606,14.749 -21.074,27.791 -34.396,39.115 -13.325,11.32 -29.311,20.365 -47.968,27.117 -18.648,6.762 -38.637,10.143 -59.953,10.143 -33.116,0 -63.76,-8.952 -91.931,-26.836 4.568,0.568 9.329,0.855 14.275,0.855 27.6,0 52.439,-8.565 74.519,-25.7 -12.941,-0.185 -24.506,-4.179 -34.688,-11.991 -10.185,-7.803 -17.273,-17.699 -21.271,-29.691 4.947,0.76 8.658,1.137 11.132,1.137 4.187,0 9.042,-0.76 14.56,-2.279 -13.894,-2.669 -25.598,-9.562 -35.115,-20.697 -9.519,-11.136 -14.277,-23.84 -14.277,-38.114 v -0.571 c 10.085,4.755 19.602,7.229 28.549,7.422 C 93.463,189.1 84.803,172.448 84.803,150.75 c 0,-10.66 2.758,-20.747 8.278,-30.264 15.035,18.464 33.311,33.213 54.816,44.252 21.507,11.038 44.54,17.227 69.092,18.558 -0.95,-3.616 -1.427,-8.186 -1.427,-13.704 0,-16.562 5.853,-30.692 17.56,-42.399 11.703,-11.706 25.837,-17.561 42.394,-17.561 17.515,0 32.079,6.283 43.688,18.846 13.134,-2.474 25.892,-7.33 38.26,-14.56 -4.757,14.652 -13.613,25.788 -26.55,33.402 12.368,-1.716 23.88,-4.95 34.537,-9.708 -7.993,12.181 -17.989,22.554 -29.98,31.123 z"
       id="path2"
       style="fill:#fbfbfb;fill-opacity:1"
       inkscape:connector-curvature="0" /></g><g
     id="g6" /><g
     id="g8" /><g
     id="g10" /><g
     id="g12" /><g
     id="g14" /><g
     id="g16" /><g
     id="g18" /><g
     id="g20" /><g
     id="g22" /><g
     id="g24" /><g
     id="g26" /><g
     id="g28" /><g
     id="g30" /><g
     id="g32" /><g
     id="g34" /></svg>